<mxfile host="app.diagrams.net" modified="2024-05-20T15:15:56.164Z" agent="Mozilla/5.0 (Windows NT 10.0; Win64; x64) AppleWebKit/537.36 (KHTML, like Gecko) Chrome/123.0.0.0 Safari/537.36 OPR/109.0.0.0" etag="s7MmUEigQtrlHJte1P27" version="24.2.7" type="google">
  <diagram id="-jLuVDc9Q0OqYaRF-Ju1" name="PÃ¡gina-2">
    <mxGraphModel grid="1" page="1" gridSize="10" guides="1" tooltips="1" connect="1" arrows="1" fold="1" pageScale="1" pageWidth="1169" pageHeight="1000" math="0" shadow="0">
      <root>
        <mxCell id="0" />
        <mxCell id="1" parent="0" />
        <mxCell id="lNOraf0grWJchJQEA7N4-1" style="edgeStyle=orthogonalEdgeStyle;rounded=0;orthogonalLoop=1;jettySize=auto;html=1;exitX=0.5;exitY=1;exitDx=0;exitDy=0;endArrow=none;endFill=0;shape=link;" edge="1" parent="1" source="lNOraf0grWJchJQEA7N4-2" target="lNOraf0grWJchJQEA7N4-16">
          <mxGeometry relative="1" as="geometry" />
        </mxCell>
        <mxCell id="lNOraf0grWJchJQEA7N4-2" value="User" style="whiteSpace=wrap;html=1;align=center;" vertex="1" parent="1">
          <mxGeometry x="1968" y="248" width="100" height="40" as="geometry" />
        </mxCell>
        <mxCell id="lNOraf0grWJchJQEA7N4-3" style="edgeStyle=none;shape=connector;rounded=0;orthogonalLoop=1;jettySize=auto;html=1;exitX=1;exitY=1;exitDx=0;exitDy=0;labelBackgroundColor=default;strokeColor=default;align=center;verticalAlign=middle;fontFamily=Helvetica;fontSize=11;fontColor=default;endArrow=none;endFill=0;" edge="1" parent="1" source="lNOraf0grWJchJQEA7N4-4" target="lNOraf0grWJchJQEA7N4-2">
          <mxGeometry relative="1" as="geometry" />
        </mxCell>
        <mxCell id="lNOraf0grWJchJQEA7N4-4" value="Id" style="ellipse;whiteSpace=wrap;html=1;align=center;fontStyle=4;" vertex="1" parent="1">
          <mxGeometry x="1743" y="148" width="100" height="40" as="geometry" />
        </mxCell>
        <mxCell id="lNOraf0grWJchJQEA7N4-5" style="rounded=0;orthogonalLoop=1;jettySize=auto;html=1;entryX=0.33;entryY=0.05;entryDx=0;entryDy=0;endArrow=none;endFill=0;entryPerimeter=0;" edge="1" parent="1" source="lNOraf0grWJchJQEA7N4-6" target="lNOraf0grWJchJQEA7N4-2">
          <mxGeometry relative="1" as="geometry" />
        </mxCell>
        <mxCell id="lNOraf0grWJchJQEA7N4-6" value="first_name" style="ellipse;whiteSpace=wrap;html=1;align=center;fontFamily=Helvetica;fontSize=11;fontColor=default;" vertex="1" parent="1">
          <mxGeometry x="1862.5" y="115" width="100" height="40" as="geometry" />
        </mxCell>
        <mxCell id="lNOraf0grWJchJQEA7N4-7" style="edgeStyle=none;shape=connector;rounded=0;orthogonalLoop=1;jettySize=auto;html=1;exitX=0;exitY=1;exitDx=0;exitDy=0;labelBackgroundColor=default;strokeColor=default;align=center;verticalAlign=middle;fontFamily=Helvetica;fontSize=11;fontColor=default;endArrow=none;endFill=0;" edge="1" parent="1" source="lNOraf0grWJchJQEA7N4-8" target="lNOraf0grWJchJQEA7N4-2">
          <mxGeometry relative="1" as="geometry" />
        </mxCell>
        <mxCell id="lNOraf0grWJchJQEA7N4-8" value="last_name" style="ellipse;whiteSpace=wrap;html=1;align=center;fontFamily=Helvetica;fontSize=11;fontColor=default;" vertex="1" parent="1">
          <mxGeometry x="2015" y="110" width="100" height="40" as="geometry" />
        </mxCell>
        <mxCell id="lNOraf0grWJchJQEA7N4-9" style="edgeStyle=none;shape=connector;rounded=0;orthogonalLoop=1;jettySize=auto;html=1;exitX=0;exitY=1;exitDx=0;exitDy=0;labelBackgroundColor=default;strokeColor=default;align=center;verticalAlign=middle;fontFamily=Helvetica;fontSize=11;fontColor=default;endArrow=none;endFill=0;" edge="1" parent="1" source="lNOraf0grWJchJQEA7N4-10" target="lNOraf0grWJchJQEA7N4-2">
          <mxGeometry relative="1" as="geometry" />
        </mxCell>
        <mxCell id="lNOraf0grWJchJQEA7N4-10" value="password" style="ellipse;whiteSpace=wrap;html=1;align=center;fontFamily=Helvetica;fontSize=11;fontColor=default;" vertex="1" parent="1">
          <mxGeometry x="2154" y="148" width="100" height="40" as="geometry" />
        </mxCell>
        <mxCell id="lNOraf0grWJchJQEA7N4-11" style="edgeStyle=none;shape=connector;rounded=0;orthogonalLoop=1;jettySize=auto;html=1;labelBackgroundColor=default;strokeColor=default;align=center;verticalAlign=middle;fontFamily=Helvetica;fontSize=11;fontColor=default;endArrow=none;endFill=0;entryX=0.721;entryY=0.27;entryDx=0;entryDy=0;entryPerimeter=0;" edge="1" parent="1" source="lNOraf0grWJchJQEA7N4-33" target="lNOraf0grWJchJQEA7N4-28">
          <mxGeometry relative="1" as="geometry">
            <mxPoint x="1965" y="641" as="sourcePoint" />
          </mxGeometry>
        </mxCell>
        <mxCell id="lNOraf0grWJchJQEA7N4-12" value="Admin" style="whiteSpace=wrap;html=1;align=center;" vertex="1" parent="1">
          <mxGeometry x="2115" y="572" width="100" height="40" as="geometry" />
        </mxCell>
        <mxCell id="lNOraf0grWJchJQEA7N4-13" style="rounded=0;orthogonalLoop=1;jettySize=auto;html=1;exitX=0.5;exitY=0;exitDx=0;exitDy=0;endArrow=none;endFill=0;" edge="1" parent="1" source="lNOraf0grWJchJQEA7N4-16" target="lNOraf0grWJchJQEA7N4-12">
          <mxGeometry relative="1" as="geometry" />
        </mxCell>
        <mxCell id="lNOraf0grWJchJQEA7N4-14" style="rounded=0;orthogonalLoop=1;jettySize=auto;html=1;exitX=1;exitY=0.5;exitDx=0;exitDy=0;endArrow=none;endFill=0;" edge="1" parent="1" source="lNOraf0grWJchJQEA7N4-16" target="lNOraf0grWJchJQEA7N4-32">
          <mxGeometry relative="1" as="geometry">
            <mxPoint x="2015.3921568627452" y="601" as="targetPoint" />
          </mxGeometry>
        </mxCell>
        <mxCell id="lNOraf0grWJchJQEA7N4-15" style="edgeStyle=none;shape=connector;rounded=0;orthogonalLoop=1;jettySize=auto;html=1;exitX=0.5;exitY=1;exitDx=0;exitDy=0;labelBackgroundColor=default;strokeColor=default;align=center;verticalAlign=middle;fontFamily=Helvetica;fontSize=11;fontColor=default;endArrow=none;endFill=0;" edge="1" parent="1" source="lNOraf0grWJchJQEA7N4-16">
          <mxGeometry relative="1" as="geometry">
            <mxPoint x="1882.2727272727275" y="572" as="targetPoint" />
          </mxGeometry>
        </mxCell>
        <mxCell id="lNOraf0grWJchJQEA7N4-16" value="" style="triangle;whiteSpace=wrap;html=1;rotation=90;" vertex="1" parent="1">
          <mxGeometry x="1988" y="398" width="60" height="80" as="geometry" />
        </mxCell>
        <mxCell id="lNOraf0grWJchJQEA7N4-17" value="" style="shape=requiredInterface;html=1;verticalLabelPosition=bottom;sketch=0;fontFamily=Helvetica;fontSize=11;fontColor=default;rotation=90;" vertex="1" parent="1">
          <mxGeometry x="1994.5" y="413" width="47" height="149" as="geometry" />
        </mxCell>
        <mxCell id="lNOraf0grWJchJQEA7N4-18" style="edgeStyle=none;shape=connector;rounded=0;orthogonalLoop=1;jettySize=auto;html=1;labelBackgroundColor=default;strokeColor=default;align=center;verticalAlign=middle;fontFamily=Helvetica;fontSize=11;fontColor=default;endArrow=none;endFill=0;entryX=0.071;entryY=0.326;entryDx=0;entryDy=0;entryPerimeter=0;" edge="1" parent="1" source="lNOraf0grWJchJQEA7N4-19" target="lNOraf0grWJchJQEA7N4-28">
          <mxGeometry relative="1" as="geometry" />
        </mxCell>
        <mxCell id="lNOraf0grWJchJQEA7N4-19" value="Video" style="whiteSpace=wrap;html=1;align=center;" vertex="1" parent="1">
          <mxGeometry x="1326" y="624" width="100" height="40" as="geometry" />
        </mxCell>
        <mxCell id="lNOraf0grWJchJQEA7N4-20" style="edgeStyle=none;shape=connector;rounded=0;orthogonalLoop=1;jettySize=auto;html=1;labelBackgroundColor=default;strokeColor=default;align=center;verticalAlign=middle;fontFamily=Helvetica;fontSize=11;fontColor=default;endArrow=none;endFill=0;" edge="1" parent="1" source="lNOraf0grWJchJQEA7N4-21" target="lNOraf0grWJchJQEA7N4-19">
          <mxGeometry relative="1" as="geometry" />
        </mxCell>
        <mxCell id="lNOraf0grWJchJQEA7N4-21" value="Id" style="ellipse;whiteSpace=wrap;html=1;align=center;fontStyle=4;" vertex="1" parent="1">
          <mxGeometry x="1241" y="717" width="100" height="40" as="geometry" />
        </mxCell>
        <mxCell id="lNOraf0grWJchJQEA7N4-22" style="edgeStyle=none;shape=connector;rounded=0;orthogonalLoop=1;jettySize=auto;html=1;entryX=0;entryY=0.75;entryDx=0;entryDy=0;labelBackgroundColor=default;strokeColor=default;align=center;verticalAlign=middle;fontFamily=Helvetica;fontSize=11;fontColor=default;endArrow=none;endFill=0;" edge="1" parent="1" source="lNOraf0grWJchJQEA7N4-23" target="lNOraf0grWJchJQEA7N4-19">
          <mxGeometry relative="1" as="geometry" />
        </mxCell>
        <mxCell id="lNOraf0grWJchJQEA7N4-23" value="Class" style="ellipse;whiteSpace=wrap;html=1;align=center;fontFamily=Helvetica;fontSize=11;fontColor=default;" vertex="1" parent="1">
          <mxGeometry x="1176" y="661" width="100" height="40" as="geometry" />
        </mxCell>
        <mxCell id="lNOraf0grWJchJQEA7N4-24" style="edgeStyle=none;shape=connector;rounded=0;orthogonalLoop=1;jettySize=auto;html=1;labelBackgroundColor=default;strokeColor=default;align=center;verticalAlign=middle;fontFamily=Helvetica;fontSize=11;fontColor=default;endArrow=none;endFill=0;" edge="1" parent="1" source="lNOraf0grWJchJQEA7N4-25" target="lNOraf0grWJchJQEA7N4-19">
          <mxGeometry relative="1" as="geometry" />
        </mxCell>
        <mxCell id="lNOraf0grWJchJQEA7N4-25" value="Hand" style="ellipse;whiteSpace=wrap;html=1;align=center;fontFamily=Helvetica;fontSize=11;fontColor=default;" vertex="1" parent="1">
          <mxGeometry x="1169" y="587" width="100" height="40" as="geometry" />
        </mxCell>
        <mxCell id="lNOraf0grWJchJQEA7N4-26" style="edgeStyle=none;shape=connector;rounded=0;orthogonalLoop=1;jettySize=auto;html=1;labelBackgroundColor=default;strokeColor=default;align=center;verticalAlign=middle;fontFamily=Helvetica;fontSize=11;fontColor=default;endArrow=none;endFill=0;" edge="1" parent="1" source="lNOraf0grWJchJQEA7N4-27" target="lNOraf0grWJchJQEA7N4-19">
          <mxGeometry relative="1" as="geometry" />
        </mxCell>
        <mxCell id="lNOraf0grWJchJQEA7N4-27" value="Date" style="ellipse;whiteSpace=wrap;html=1;align=center;fontFamily=Helvetica;fontSize=11;fontColor=default;" vertex="1" parent="1">
          <mxGeometry x="1191" y="527" width="100" height="40" as="geometry" />
        </mxCell>
        <mxCell id="lNOraf0grWJchJQEA7N4-28" value="Has" style="strokeWidth=2;html=1;shape=mxgraph.flowchart.decision;whiteSpace=wrap;fontFamily=Helvetica;fontSize=11;fontColor=default;" vertex="1" parent="1">
          <mxGeometry x="1581" y="667" width="119" height="55" as="geometry" />
        </mxCell>
        <mxCell id="lNOraf0grWJchJQEA7N4-29" value="(0,N)" style="text;html=1;align=center;verticalAlign=middle;resizable=0;points=[];autosize=1;strokeColor=none;fillColor=none;fontSize=11;fontFamily=Helvetica;fontColor=default;" vertex="1" parent="1">
          <mxGeometry x="1408" y="661" width="50" height="30" as="geometry" />
        </mxCell>
        <mxCell id="lNOraf0grWJchJQEA7N4-30" value="(1,1)" style="text;html=1;align=center;verticalAlign=middle;resizable=0;points=[];autosize=1;strokeColor=none;fillColor=none;fontSize=11;fontFamily=Helvetica;fontColor=default;" vertex="1" parent="1">
          <mxGeometry x="1779" y="597" width="50" height="30" as="geometry" />
        </mxCell>
        <mxCell id="lNOraf0grWJchJQEA7N4-31" value="N:1" style="text;html=1;align=center;verticalAlign=middle;resizable=0;points=[];autosize=1;strokeColor=none;fillColor=none;fontSize=11;fontFamily=Helvetica;fontColor=default;" vertex="1" parent="1">
          <mxGeometry x="1629" y="638" width="35" height="25" as="geometry" />
        </mxCell>
        <mxCell id="lNOraf0grWJchJQEA7N4-32" value="Doctor" style="whiteSpace=wrap;html=1;align=center;" vertex="1" parent="1">
          <mxGeometry x="1966" y="591.5" width="100" height="40" as="geometry" />
        </mxCell>
        <mxCell id="lNOraf0grWJchJQEA7N4-49" style="rounded=0;orthogonalLoop=1;jettySize=auto;html=1;entryX=0.925;entryY=0.563;entryDx=0;entryDy=0;endArrow=none;endFill=0;entryPerimeter=0;" edge="1" parent="1" source="lNOraf0grWJchJQEA7N4-33" target="lNOraf0grWJchJQEA7N4-55">
          <mxGeometry relative="1" as="geometry">
            <mxPoint x="1629" y="403" as="targetPoint" />
          </mxGeometry>
        </mxCell>
        <mxCell id="lNOraf0grWJchJQEA7N4-33" value="Pacient" style="whiteSpace=wrap;html=1;align=center;" vertex="1" parent="1">
          <mxGeometry x="1826" y="570" width="100" height="40" as="geometry" />
        </mxCell>
        <mxCell id="lNOraf0grWJchJQEA7N4-34" value="Monitor" style="strokeWidth=2;html=1;shape=mxgraph.flowchart.decision;whiteSpace=wrap;fontFamily=Helvetica;fontSize=11;fontColor=default;" vertex="1" parent="1">
          <mxGeometry x="1859" y="727" width="107" height="65" as="geometry" />
        </mxCell>
        <mxCell id="lNOraf0grWJchJQEA7N4-35" style="edgeStyle=none;shape=connector;rounded=0;orthogonalLoop=1;jettySize=auto;html=1;exitX=0.5;exitY=1;exitDx=0;exitDy=0;entryX=0.402;entryY=0.108;entryDx=0;entryDy=0;entryPerimeter=0;labelBackgroundColor=default;strokeColor=default;align=center;verticalAlign=middle;fontFamily=Helvetica;fontSize=11;fontColor=default;endArrow=none;endFill=0;" edge="1" parent="1" source="lNOraf0grWJchJQEA7N4-33" target="lNOraf0grWJchJQEA7N4-34">
          <mxGeometry relative="1" as="geometry" />
        </mxCell>
        <mxCell id="lNOraf0grWJchJQEA7N4-36" style="edgeStyle=none;shape=connector;rounded=0;orthogonalLoop=1;jettySize=auto;html=1;exitX=0.5;exitY=1;exitDx=0;exitDy=0;entryX=0.776;entryY=0.292;entryDx=0;entryDy=0;entryPerimeter=0;labelBackgroundColor=default;strokeColor=default;align=center;verticalAlign=middle;fontFamily=Helvetica;fontSize=11;fontColor=default;endArrow=none;endFill=0;" edge="1" parent="1" source="lNOraf0grWJchJQEA7N4-32" target="lNOraf0grWJchJQEA7N4-34">
          <mxGeometry relative="1" as="geometry" />
        </mxCell>
        <mxCell id="lNOraf0grWJchJQEA7N4-37" value="(1,1)" style="text;html=1;align=center;verticalAlign=middle;resizable=0;points=[];autosize=1;strokeColor=none;fillColor=none;fontSize=11;fontFamily=Helvetica;fontColor=default;" vertex="1" parent="1">
          <mxGeometry x="1997.5" y="636" width="50" height="30" as="geometry" />
        </mxCell>
        <mxCell id="lNOraf0grWJchJQEA7N4-38" value="(1,N)" style="text;html=1;align=center;verticalAlign=middle;resizable=0;points=[];autosize=1;strokeColor=none;fillColor=none;fontSize=11;fontFamily=Helvetica;fontColor=default;" vertex="1" parent="1">
          <mxGeometry x="1842" y="613" width="50" height="30" as="geometry" />
        </mxCell>
        <mxCell id="lNOraf0grWJchJQEA7N4-39" value="N:1" style="text;html=1;align=center;verticalAlign=middle;resizable=0;points=[];autosize=1;strokeColor=none;fillColor=none;fontSize=11;fontFamily=Helvetica;fontColor=default;" vertex="1" parent="1">
          <mxGeometry x="1901" y="704" width="35" height="25" as="geometry" />
        </mxCell>
        <mxCell id="lNOraf0grWJchJQEA7N4-40" style="edgeStyle=none;shape=connector;rounded=0;orthogonalLoop=1;jettySize=auto;html=1;exitX=1;exitY=1;exitDx=0;exitDy=0;labelBackgroundColor=default;strokeColor=default;align=center;verticalAlign=middle;fontFamily=Helvetica;fontSize=11;fontColor=default;endArrow=none;endFill=0;" edge="1" parent="1" source="lNOraf0grWJchJQEA7N4-41" target="lNOraf0grWJchJQEA7N4-33">
          <mxGeometry relative="1" as="geometry" />
        </mxCell>
        <mxCell id="lNOraf0grWJchJQEA7N4-41" value="birth_date" style="ellipse;whiteSpace=wrap;html=1;align=center;fontFamily=Helvetica;fontSize=11;fontColor=default;" vertex="1" parent="1">
          <mxGeometry x="1590.5" y="522" width="100" height="40" as="geometry" />
        </mxCell>
        <mxCell id="lNOraf0grWJchJQEA7N4-42" value="handedness" style="ellipse;whiteSpace=wrap;html=1;align=center;fontFamily=Helvetica;fontSize=11;fontColor=default;" vertex="1" parent="1">
          <mxGeometry x="1590.5" y="584" width="100" height="40" as="geometry" />
        </mxCell>
        <mxCell id="lNOraf0grWJchJQEA7N4-43" style="edgeStyle=none;shape=connector;rounded=0;orthogonalLoop=1;jettySize=auto;html=1;labelBackgroundColor=default;strokeColor=default;align=center;verticalAlign=middle;fontFamily=Helvetica;fontSize=11;fontColor=default;endArrow=none;endFill=0;" edge="1" parent="1" source="lNOraf0grWJchJQEA7N4-42" target="lNOraf0grWJchJQEA7N4-33">
          <mxGeometry relative="1" as="geometry" />
        </mxCell>
        <mxCell id="lNOraf0grWJchJQEA7N4-44" style="edgeStyle=none;shape=connector;rounded=0;orthogonalLoop=1;jettySize=auto;html=1;exitX=0;exitY=0.5;exitDx=0;exitDy=0;labelBackgroundColor=default;strokeColor=default;align=center;verticalAlign=middle;fontFamily=Helvetica;fontSize=11;fontColor=default;endArrow=none;endFill=0;" edge="1" parent="1" source="lNOraf0grWJchJQEA7N4-45" target="lNOraf0grWJchJQEA7N4-2">
          <mxGeometry relative="1" as="geometry" />
        </mxCell>
        <mxCell id="lNOraf0grWJchJQEA7N4-45" value="username" style="ellipse;whiteSpace=wrap;html=1;align=center;fontFamily=Helvetica;fontSize=11;fontColor=default;" vertex="1" parent="1">
          <mxGeometry x="2218" y="212" width="100" height="40" as="geometry" />
        </mxCell>
        <mxCell id="9hEZAiYGDEkJKQtxBDnT-2" style="edgeStyle=none;rounded=0;orthogonalLoop=1;jettySize=auto;html=1;strokeColor=default;align=center;verticalAlign=middle;fontFamily=Helvetica;fontSize=11;fontColor=default;labelBackgroundColor=default;endArrow=none;endFill=0;" edge="1" parent="1" source="lNOraf0grWJchJQEA7N4-46" target="9hEZAiYGDEkJKQtxBDnT-4">
          <mxGeometry relative="1" as="geometry">
            <mxPoint x="1295" y="214" as="targetPoint" />
          </mxGeometry>
        </mxCell>
        <mxCell id="9hEZAiYGDEkJKQtxBDnT-6" style="edgeStyle=none;rounded=0;orthogonalLoop=1;jettySize=auto;html=1;strokeColor=default;align=center;verticalAlign=middle;fontFamily=Helvetica;fontSize=11;fontColor=default;labelBackgroundColor=default;endArrow=none;endFill=0;" edge="1" parent="1" source="lNOraf0grWJchJQEA7N4-46" target="9hEZAiYGDEkJKQtxBDnT-5">
          <mxGeometry relative="1" as="geometry" />
        </mxCell>
        <mxCell id="lNOraf0grWJchJQEA7N4-46" value="Medicine" style="rounded=0;whiteSpace=wrap;html=1;" vertex="1" parent="1">
          <mxGeometry x="1241" y="270" width="108" height="48" as="geometry" />
        </mxCell>
        <mxCell id="lNOraf0grWJchJQEA7N4-52" style="edgeStyle=none;rounded=0;orthogonalLoop=1;jettySize=auto;html=1;exitX=0.5;exitY=0;exitDx=0;exitDy=0;strokeColor=default;align=center;verticalAlign=middle;fontFamily=Helvetica;fontSize=11;fontColor=default;labelBackgroundColor=default;endArrow=none;endFill=0;entryX=0.5;entryY=1;entryDx=0;entryDy=0;" edge="1" parent="1" target="lNOraf0grWJchJQEA7N4-54">
          <mxGeometry relative="1" as="geometry">
            <mxPoint x="1579" y="373" as="sourcePoint" />
            <mxPoint x="1579" y="300" as="targetPoint" />
          </mxGeometry>
        </mxCell>
        <mxCell id="lNOraf0grWJchJQEA7N4-50" style="rounded=0;orthogonalLoop=1;jettySize=auto;html=1;entryX=0;entryY=0.5;entryDx=0;entryDy=0;endArrow=none;endFill=0;" edge="1" parent="1" source="lNOraf0grWJchJQEA7N4-46" target="lNOraf0grWJchJQEA7N4-55">
          <mxGeometry relative="1" as="geometry">
            <mxPoint x="1529" y="393" as="targetPoint" />
          </mxGeometry>
        </mxCell>
        <mxCell id="lNOraf0grWJchJQEA7N4-54" value="Id" style="ellipse;whiteSpace=wrap;html=1;align=center;fontStyle=4;" vertex="1" parent="1">
          <mxGeometry x="1529" y="252" width="100" height="40" as="geometry" />
        </mxCell>
        <mxCell id="lNOraf0grWJchJQEA7N4-65" style="edgeStyle=none;rounded=0;orthogonalLoop=1;jettySize=auto;html=1;exitX=1;exitY=0;exitDx=0;exitDy=0;entryX=0;entryY=0.5;entryDx=0;entryDy=0;strokeColor=default;align=center;verticalAlign=middle;fontFamily=Helvetica;fontSize=11;fontColor=default;labelBackgroundColor=default;endArrow=none;endFill=0;" edge="1" parent="1" source="lNOraf0grWJchJQEA7N4-55" target="lNOraf0grWJchJQEA7N4-62">
          <mxGeometry relative="1" as="geometry" />
        </mxCell>
        <mxCell id="lNOraf0grWJchJQEA7N4-66" style="edgeStyle=none;rounded=0;orthogonalLoop=1;jettySize=auto;html=1;exitX=0.888;exitY=0.413;exitDx=0;exitDy=0;strokeColor=default;align=center;verticalAlign=middle;fontFamily=Helvetica;fontSize=11;fontColor=default;labelBackgroundColor=default;endArrow=none;endFill=0;exitPerimeter=0;" edge="1" parent="1" source="lNOraf0grWJchJQEA7N4-55" target="lNOraf0grWJchJQEA7N4-64">
          <mxGeometry relative="1" as="geometry" />
        </mxCell>
        <mxCell id="lNOraf0grWJchJQEA7N4-55" value="Is assigned" style="rhombus;whiteSpace=wrap;html=1;fontFamily=Helvetica;fontSize=11;fontColor=default;labelBackgroundColor=default;" vertex="1" parent="1">
          <mxGeometry x="1539" y="370" width="80" height="80" as="geometry" />
        </mxCell>
        <mxCell id="lNOraf0grWJchJQEA7N4-56" value="(N:N)" style="text;html=1;align=center;verticalAlign=middle;resizable=0;points=[];autosize=1;strokeColor=none;fillColor=none;fontFamily=Helvetica;fontSize=11;fontColor=default;labelBackgroundColor=default;" vertex="1" parent="1">
          <mxGeometry x="1554" y="448" width="50" height="30" as="geometry" />
        </mxCell>
        <mxCell id="lNOraf0grWJchJQEA7N4-57" value="(0,N)" style="text;html=1;align=center;verticalAlign=middle;resizable=0;points=[];autosize=1;strokeColor=none;fillColor=none;fontFamily=Helvetica;fontSize=11;fontColor=default;labelBackgroundColor=default;" vertex="1" parent="1">
          <mxGeometry x="1389" y="300" width="50" height="30" as="geometry" />
        </mxCell>
        <mxCell id="lNOraf0grWJchJQEA7N4-59" value="(0,N)" style="text;html=1;align=center;verticalAlign=middle;resizable=0;points=[];autosize=1;strokeColor=none;fillColor=none;fontFamily=Helvetica;fontSize=11;fontColor=default;labelBackgroundColor=default;" vertex="1" parent="1">
          <mxGeometry x="1809" y="507.5" width="50" height="30" as="geometry" />
        </mxCell>
        <mxCell id="lNOraf0grWJchJQEA7N4-62" value="start_date" style="ellipse;whiteSpace=wrap;html=1;align=center;fontFamily=Helvetica;fontSize=11;fontColor=default;" vertex="1" parent="1">
          <mxGeometry x="1669" y="288" width="100" height="40" as="geometry" />
        </mxCell>
        <mxCell id="lNOraf0grWJchJQEA7N4-64" value="end&lt;span style=&quot;background-color: initial;&quot;&gt;_date&lt;/span&gt;" style="ellipse;whiteSpace=wrap;html=1;align=center;fontFamily=Helvetica;fontSize=11;fontColor=default;" vertex="1" parent="1">
          <mxGeometry x="1700" y="358" width="100" height="40" as="geometry" />
        </mxCell>
        <mxCell id="9hEZAiYGDEkJKQtxBDnT-4" value="Name" style="ellipse;whiteSpace=wrap;html=1;align=center;fontFamily=Helvetica;fontSize=11;fontColor=default;" vertex="1" parent="1">
          <mxGeometry x="1241" y="172" width="100" height="40" as="geometry" />
        </mxCell>
        <mxCell id="9hEZAiYGDEkJKQtxBDnT-5" value="Id" style="ellipse;whiteSpace=wrap;html=1;align=center;fontStyle=4;" vertex="1" parent="1">
          <mxGeometry x="1210" y="370" width="100" height="40" as="geometry" />
        </mxCell>
      </root>
    </mxGraphModel>
  </diagram>
</mxfile>
